<?xml version="1.0" encoding="UTF-8"?>
<svg xmlns="http://www.w3.org/2000/svg" width="1024" height="1024" viewBox="0 0 1024 1024">
  <path fill="#FF0000" fill-rule="evenodd" d="M512.0 128.0A384.0 384.0 0 1 1 512.0 896.0A384.0 384.0 0 1 1 512.0 128.0ZM512.0 135.67A376.33 376.33 0 1 0 512.0 888.33A376.33 376.33 0 1 0 512.0 135.67Z"/>
  <path fill="#FF0000" fill-rule="evenodd" d="M497.68 875.37C494.94 874.68 492.79 873.26 491.47 871.27C490.69 870.09 489.83 868.15 490.01 867.96C490.07 867.91 490.69 867.66 491.39 867.40L492.67 866.94L493.45 868.54C494.43 870.54 495.80 871.95 497.65 872.85L499.03 873.52L501.27 873.52C503.19 873.53 503.67 873.46 504.54 873.06C507.16 871.85 508.20 869.35 507.09 866.92C506.49 865.60 504.59 863.88 502.13 862.44C496.44 859.12 495.57 858.57 494.60 857.75C493.09 856.46 492.03 855.09 491.55 853.81C491.20 852.89 491.14 852.35 491.21 850.85C491.31 848.54 491.92 847.16 493.48 845.69C495.52 843.76 497.48 843.09 501.07 843.11C503.86 843.12 505.50 843.47 507.36 844.46C509.34 845.51 511.37 848.08 511.90 850.17L512.04 850.71L511.06 851.14C509.32 851.91 509.29 851.91 508.88 850.78C507.62 847.22 504.83 845.23 501.11 845.23C498.33 845.23 496.56 846.11 495.67 847.95C494.84 849.68 495.27 851.40 496.94 853.03C498.08 854.13 498.79 854.60 503.01 857.08C508.55 860.32 510.44 861.89 511.61 864.19C512.31 865.58 512.39 867.78 511.80 869.53C510.86 872.32 509.15 873.93 505.89 875.11C504.38 875.65 499.41 875.81 497.68 875.37ZM520.79 859.74C520.41 851.20 520.14 844.18 520.19 844.14C520.28 844.06 539.46 843.17 540.96 843.18L541.83 843.19L541.83 844.18L541.83 845.17L539.74 845.30C538.58 845.37 534.97 845.53 531.72 845.66C528.46 845.79 525.73 845.96 525.65 846.02C525.52 846.14 525.83 855.71 526.00 856.57L526.08 856.98L531.45 856.74C535.57 856.55 536.85 856.55 536.98 856.74C537.06 856.87 537.11 857.34 537.08 857.79L537.03 858.61L531.64 858.86C528.67 859.00 526.21 859.14 526.17 859.18C526.10 859.25 526.71 872.88 526.78 872.94C526.80 872.96 530.44 872.80 534.88 872.60C539.32 872.39 543.03 872.29 543.12 872.39C543.21 872.48 543.26 872.95 543.22 873.45L543.16 874.34L533.66 874.79C528.43 875.03 523.55 875.24 522.82 875.25L521.48 875.26L520.79 859.74ZM562.00 872.08C553.79 870.60 548.11 863.43 548.63 855.23C549.11 847.72 554.29 841.91 562.21 839.98C564.07 839.53 567.88 839.52 569.51 839.96C572.74 840.83 575.09 842.17 577.37 844.41L578.68 845.71L577.68 846.59C577.13 847.08 576.61 847.48 576.54 847.48C576.47 847.48 576.01 846.96 575.51 846.32C574.33 844.78 572.47 843.26 570.84 842.50C568.47 841.38 564.79 841.55 561.95 842.89C556.82 845.32 554.15 850.63 554.86 856.99C555.60 863.65 559.34 868.28 564.92 869.46C566.93 869.89 569.68 869.74 571.32 869.13C573.81 868.20 576.32 865.72 577.74 862.80C578.15 861.96 578.51 861.23 578.53 861.19C578.63 861.06 580.85 862.05 580.85 862.23C580.85 862.58 579.76 864.57 578.90 865.78C576.46 869.22 572.74 871.42 568.20 872.11C565.82 872.46 564.09 872.46 562.00 872.08ZM459.16 871.91C456.21 871.35 454.32 870.44 452.65 868.80C451.50 867.67 450.25 865.42 449.92 863.89L449.74 863.04L451.03 862.72C451.74 862.54 452.41 862.39 452.53 862.39C452.64 862.39 452.89 862.95 453.08 863.63C454.00 866.91 456.68 869.33 460.09 869.95C464.97 870.83 468.56 867.34 466.75 863.46C465.99 861.83 464.48 860.38 460.19 857.18C455.95 854.00 454.51 852.57 453.51 850.54L452.85 849.22L452.86 847.38C452.86 845.81 452.94 845.36 453.42 844.34C454.98 840.99 457.66 839.45 461.94 839.47C468.02 839.50 472.18 842.27 473.45 847.13C473.62 847.77 473.70 848.33 473.62 848.37C473.39 848.51 471.28 849.11 471.02 849.11C470.88 849.11 470.70 848.75 470.63 848.31C470.20 845.79 467.98 843.03 465.67 842.16C464.00 841.53 461.69 841.40 460.31 841.86C458.45 842.47 457.04 844.30 457.04 846.08C457.04 846.92 458.07 848.70 459.23 849.86C459.83 850.46 461.96 852.17 463.95 853.65C469.68 857.90 471.75 860.32 472.09 863.14C472.41 865.86 470.68 869.19 468.16 870.68C465.91 872.01 462.29 872.51 459.16 871.91ZM437.86 868.26C437.51 868.08 435.32 864.00 429.79 853.26C425.62 845.16 422.16 838.47 422.09 838.41C422.03 838.35 420.66 843.65 419.05 850.19C417.44 856.73 416.11 862.10 416.10 862.12C416.09 862.14 415.57 862.04 414.95 861.89C413.95 861.66 413.83 861.58 413.88 861.14C413.94 860.61 421.10 831.49 421.21 831.36C421.24 831.32 421.91 831.44 422.70 831.64L424.13 831.99L430.91 844.79C434.64 851.83 437.90 857.94 438.15 858.37L438.60 859.15L441.33 848.16C442.82 842.11 444.07 837.12 444.11 837.07C444.25 836.87 446.44 837.52 446.37 837.74C446.32 837.87 444.59 844.85 442.52 853.25C440.45 861.65 438.67 868.52 438.55 868.52C438.44 868.52 438.13 868.40 437.86 868.26ZM597.71 865.26C595.07 864.69 593.10 863.61 591.43 861.80C589.57 859.79 589.25 858.91 586.37 847.53C584.92 841.83 583.76 837.16 583.78 837.15C584.30 836.91 588.76 835.90 588.85 836.00C588.93 836.07 590.15 840.73 591.57 846.33C594.45 857.74 594.74 858.54 596.71 860.34C599.16 862.57 602.22 863.28 605.68 862.39C609.23 861.48 611.75 859.06 612.62 855.74C613.21 853.47 613.10 852.81 610.36 841.99C608.95 836.41 607.78 831.67 607.76 831.46C607.73 831.15 607.94 831.01 608.74 830.80C609.30 830.66 609.82 830.60 609.89 830.68C610.15 830.98 615.17 851.32 615.29 852.58C615.85 858.22 611.91 862.84 604.92 864.75C602.84 865.32 599.17 865.58 597.71 865.26ZM622.45 842.85C618.45 831.69 617.27 828.16 617.47 828.04C618.09 827.65 629.29 823.79 630.44 823.57C631.14 823.43 632.60 823.36 633.72 823.40C635.50 823.47 635.91 823.56 637.09 824.15C639.93 825.55 641.60 828.68 641.12 831.70C640.81 833.60 640.04 834.94 638.19 836.76L636.49 838.44L644.22 843.52C648.47 846.31 651.95 848.66 651.95 848.73C651.95 848.86 646.76 850.75 646.38 850.75C646.26 850.75 642.80 848.49 638.68 845.73L631.20 840.71L629.68 841.25C628.84 841.55 628.08 841.87 627.99 841.95C627.90 842.03 628.92 845.15 630.26 848.88C631.60 852.60 632.62 855.71 632.52 855.77C632.34 855.88 627.89 857.49 627.76 857.49C627.73 857.49 625.34 850.90 622.45 842.85ZM390.44 854.34C383.35 852.83 378.12 847.90 376.52 841.22C375.87 838.50 376.03 835.21 376.93 832.56C377.82 829.94 379.05 828.04 381.13 826.07C386.53 820.96 395.14 820.25 402.05 824.35C404.60 825.87 407.33 828.77 408.62 831.33C410.03 834.13 410.66 837.51 410.29 840.31C409.41 846.94 404.86 852.17 398.37 854.02C396.43 854.58 392.34 854.74 390.44 854.34ZM395.57 851.73C397.54 850.78 398.92 849.65 400.31 847.83C403.94 843.10 405.81 835.89 404.62 831.26C403.63 827.42 400.64 824.70 396.46 823.84C392.59 823.05 388.79 824.69 386.07 828.32C383.31 832.01 381.44 837.45 381.45 841.73C381.46 847.02 383.97 850.59 388.80 852.21C389.67 852.50 390.39 852.57 391.99 852.52L394.06 852.45L395.57 851.73ZM657.28 845.38C657.07 844.90 654.27 838.46 651.05 831.05C647.83 823.65 645.22 817.57 645.25 817.54C645.29 817.52 646.38 817.03 647.69 816.47L650.08 815.45L656.31 829.78L662.54 844.11L661.79 844.44C661.38 844.63 660.28 845.11 659.35 845.51L657.65 846.24L657.28 845.38ZM360.66 841.54C359.51 840.99 358.56 840.48 358.56 840.41C358.56 840.22 371.44 812.46 371.60 812.30C371.68 812.23 372.78 812.64 374.05 813.22C375.72 813.98 376.34 814.36 376.28 814.58C376.24 814.75 373.32 821.12 369.79 828.73C365.23 838.59 363.29 842.57 363.07 842.56C362.89 842.55 361.81 842.09 360.66 841.54ZM628.90 839.79C632.23 838.60 634.17 837.18 635.23 835.20C635.62 834.46 635.70 833.99 635.70 832.56C635.71 831.05 635.63 830.67 635.11 829.64C634.45 828.34 633.62 827.51 632.28 826.79C631.58 826.42 631.09 826.34 629.68 826.34C628.14 826.34 627.66 826.44 625.44 827.25C624.07 827.75 622.94 828.23 622.94 828.31C622.94 828.43 626.39 838.13 627.02 839.81C627.13 840.09 627.26 840.33 627.32 840.33C627.37 840.33 628.08 840.08 628.90 839.79ZM678.49 835.58C678.25 835.10 675.59 829.93 672.59 824.08C669.58 818.24 666.79 812.79 666.38 811.97L665.63 810.48L660.62 813.06C657.86 814.48 655.57 815.61 655.54 815.57C655.50 815.53 655.28 815.12 655.04 814.65L654.61 813.79L658.14 811.97C667.48 807.12 679.36 801.06 679.41 801.13C679.91 801.80 680.36 802.80 680.22 802.93C680.13 803.02 677.86 804.21 675.20 805.58L670.35 808.07L672.48 812.20C679.54 825.88 683.58 833.89 683.49 834.04C683.43 834.13 682.38 834.71 681.16 835.33L678.93 836.44L678.49 835.58ZM339.83 831.08C338.57 830.39 337.58 829.77 337.61 829.71C339.75 826.04 351.39 804.27 351.27 804.16C351.18 804.08 349.45 803.11 347.43 802.02C345.41 800.93 343.27 799.76 342.68 799.43L341.61 798.82L342.04 797.97C342.28 797.50 342.50 797.08 342.53 797.05C342.58 796.99 366.63 809.99 366.93 810.23C366.98 810.27 366.82 810.71 366.57 811.22L366.12 812.14L365.36 811.75C364.94 811.53 362.71 810.33 360.42 809.09C358.12 807.84 356.22 806.82 356.19 806.82C356.17 806.82 353.10 812.41 349.38 819.25C345.66 826.09 342.50 831.84 342.36 832.01C342.14 832.30 341.86 832.20 339.83 831.08ZM325.45 822.95L323.29 821.52L323.77 818.30C324.04 816.54 324.42 814.00 324.63 812.67L325.00 810.25L322.42 808.57C321.01 807.64 318.49 806.00 316.84 804.92L313.83 802.96L308.99 805.94L304.16 808.92L303.25 808.43C302.37 807.95 301.83 807.49 301.99 807.35C302.31 807.06 331.56 789.17 331.80 789.11C331.97 789.07 332.31 789.20 332.55 789.40L333.00 789.76L330.46 806.82C329.06 816.20 327.92 823.99 327.92 824.13C327.92 824.27 327.85 824.39 327.76 824.39C327.68 824.39 326.64 823.74 325.45 822.95ZM703.83 814.97C701.99 812.03 700.29 809.51 700.07 809.37C699.84 809.22 695.34 807.25 690.06 804.98C684.77 802.70 680.38 800.78 680.29 800.70C680.12 800.54 684.25 797.83 684.65 797.83C684.77 797.83 688.73 799.50 693.45 801.53C698.16 803.57 702.05 805.20 702.10 805.16C702.14 805.12 702.32 800.85 702.51 795.68L702.84 786.29L703.27 785.98C703.51 785.81 704.06 785.46 704.49 785.20L705.28 784.73L705.28 785.51C705.29 785.94 705.13 790.76 704.94 796.23L704.59 806.17L707.21 810.33C708.65 812.61 710.27 815.18 710.81 816.04L711.79 817.60L709.78 818.84C708.68 819.53 707.65 820.14 707.49 820.20C707.28 820.29 706.24 818.80 703.83 814.97ZM326.31 801.24C326.83 797.73 327.23 794.84 327.20 794.81C327.14 794.73 316.46 801.27 316.13 801.58C315.95 801.76 317.01 802.54 320.52 804.81C323.07 806.47 325.20 807.77 325.25 807.71C325.31 807.65 325.79 804.74 326.31 801.24ZM295.08 803.39L294.63 803.04L293.92 786.32C293.53 777.12 293.17 769.55 293.12 769.51C293.08 769.46 289.61 773.70 285.42 778.93C281.23 784.15 277.74 788.43 277.68 788.43C277.61 788.43 277.17 788.09 276.70 787.66L275.84 786.90L285.40 774.99C290.66 768.44 295.06 762.98 295.18 762.86C295.34 762.70 295.72 762.89 296.52 763.51L297.64 764.39L297.77 765.94C297.83 766.79 298.21 773.47 298.60 780.77C298.99 788.07 299.34 794.33 299.37 794.66C299.41 795.21 300.14 794.36 306.44 786.49C310.31 781.66 313.54 777.62 313.63 777.53C313.72 777.43 314.21 777.69 314.72 778.11L315.64 778.86L305.69 791.30C300.22 798.14 295.69 803.74 295.64 803.74C295.58 803.74 295.33 803.59 295.08 803.39ZM735.62 795.23C728.91 794.30 723.21 788.74 722.02 781.96C721.67 779.94 721.87 776.48 722.44 774.64C724.77 767.20 731.39 762.06 738.65 762.08C740.14 762.08 743.81 762.73 744.13 763.05C744.22 763.14 744.16 763.67 743.98 764.23C743.80 764.79 743.62 765.35 743.58 765.48C743.53 765.64 742.92 765.50 741.71 765.07L739.91 764.43L737.35 764.43L734.80 764.42L733.47 765.06C729.44 766.98 726.54 771.56 726.53 776.03C726.51 780.54 729.73 786.13 733.97 788.93C736.07 790.32 737.95 790.93 740.42 791.04C742.97 791.15 744.50 790.82 746.64 789.69C750.81 787.51 752.62 784.05 752.42 778.68L752.33 776.18L753.07 776.07C753.47 776.00 754.05 775.91 754.35 775.87L754.89 775.78L755.03 777.29C755.30 780.15 754.66 783.32 753.27 785.99C750.08 792.12 742.36 796.16 735.62 795.23ZM764.42 768.90C760.28 768.31 757.07 766.70 754.39 763.86C751.98 761.30 750.73 758.62 750.22 754.92C749.79 751.74 750.60 747.76 752.31 744.71C754.52 740.77 758.39 737.55 762.64 736.12C766.34 734.88 770.92 735.07 774.39 736.61C776.14 737.38 777.77 738.58 779.34 740.25C781.11 742.13 782.12 743.83 782.95 746.34L783.60 748.28L783.61 751.14C783.63 754.58 783.33 755.93 781.90 758.91C779.08 764.74 773.23 768.64 766.88 768.91C765.86 768.95 764.76 768.95 764.42 768.90ZM257.64 766.16C255.64 765.62 252.76 764.20 251.09 762.94C249.70 761.88 240.21 752.24 240.10 751.77C240.06 751.57 258.65 733.61 262.01 730.61L262.58 730.10L264.14 731.77C265.00 732.68 267.06 734.87 268.72 736.62C274.74 742.99 276.64 746.52 276.64 751.36C276.64 755.81 275.10 759.21 271.65 762.42C269.84 764.10 268.37 765.01 266.15 765.82C264.68 766.35 264.15 766.44 261.82 766.50C259.64 766.56 258.89 766.50 257.64 766.16ZM772.09 765.33C776.06 764.68 779.62 761.10 780.26 757.07C780.92 752.93 778.70 748.11 774.18 743.86C768.08 738.13 761.53 737.21 756.91 741.43C754.58 743.56 753.49 745.94 753.49 748.88C753.49 752.47 755.15 755.78 758.79 759.45C762.60 763.28 766.44 765.30 770.35 765.52C770.57 765.53 771.36 765.45 772.09 765.33ZM261.83 761.36C264.08 760.61 265.73 759.54 267.77 757.50C269.30 755.96 269.79 755.31 270.55 753.77C272.52 749.83 272.35 745.73 270.07 741.92C269.33 740.69 264.84 735.82 264.44 735.82C264.19 735.82 245.38 753.66 245.38 753.90C245.38 753.98 246.64 755.34 248.19 756.91L250.99 759.78L252.94 760.72C254.00 761.24 255.38 761.76 256.00 761.86C257.65 762.14 260.15 761.93 261.83 761.36ZM227.63 736.53C224.01 731.93 221.02 728.05 220.97 727.91C220.89 727.67 244.87 708.69 245.28 708.66C245.46 708.65 258.64 725.29 258.65 725.54C258.65 725.61 258.31 725.95 257.89 726.28L257.12 726.89L252.11 720.49C249.36 716.97 247.06 714.08 246.99 714.07C246.82 714.06 238.78 720.35 238.55 720.68C238.42 720.87 239.18 721.98 241.09 724.40C242.58 726.30 244.08 728.21 244.42 728.65L245.04 729.44L244.34 730.02C243.95 730.34 243.55 730.60 243.43 730.59C243.32 730.59 241.77 728.71 239.97 726.40C238.18 724.10 236.61 722.26 236.48 722.31C236.34 722.36 233.88 724.26 231.00 726.53C227.67 729.14 225.81 730.73 225.90 730.88C225.98 731.01 228.24 733.91 230.91 737.31C233.59 740.71 235.77 743.53 235.77 743.57C235.77 743.62 235.42 743.93 234.99 744.28L234.20 744.90L227.63 736.53ZM792.01 738.47C791.33 738.30 790.21 737.87 789.50 737.50C788.80 737.14 784.61 734.06 780.20 730.67C775.79 727.27 772.02 724.37 771.81 724.22L771.44 723.95L772.92 722.02C773.73 720.96 774.46 720.01 774.55 719.91C774.64 719.81 778.51 722.65 783.15 726.22C788.14 730.06 792.10 732.95 792.82 733.29C797.55 735.52 803.13 733.30 805.54 728.22C807.28 724.57 806.35 720.10 803.31 717.43C802.79 716.98 798.83 713.90 794.49 710.59C790.16 707.27 786.61 704.47 786.61 704.36C786.60 704.25 786.90 703.79 787.28 703.35L787.96 702.54L795.91 708.65C805.33 715.89 805.14 715.72 806.37 717.27C809.52 721.19 809.35 726.35 805.89 731.55C802.92 736.01 799.12 738.50 794.97 738.69C793.85 738.75 792.80 738.67 792.01 738.47ZM805.59 704.56C798.46 700.13 792.53 696.48 792.43 696.44C792.16 696.34 793.72 693.87 794.13 693.75C794.31 693.69 801.03 692.48 809.07 691.06C817.10 689.63 823.75 688.40 823.84 688.32C823.93 688.24 819.72 685.53 814.49 682.30C809.25 679.06 804.93 676.35 804.87 676.26C804.76 676.07 805.84 674.21 806.03 674.28C806.10 674.30 812.23 678.08 819.66 682.68L833.16 691.04L832.84 691.58L832.52 692.12L815.90 694.87C803.30 696.95 799.33 697.67 799.52 697.85C799.66 697.98 804.28 700.86 809.78 704.26C815.29 707.65 819.87 710.50 819.96 710.58C820.16 710.77 819.07 712.64 818.77 712.62C818.66 712.62 812.73 708.99 805.59 704.56ZM208.70 710.07C207.94 708.88 207.36 707.88 207.40 707.84C207.44 707.80 212.90 704.21 219.53 699.86C226.16 695.51 231.60 691.93 231.62 691.92C231.64 691.90 230.29 689.82 228.61 687.30C226.94 684.77 225.57 682.63 225.57 682.55C225.56 682.37 227.17 681.28 227.27 681.39C227.31 681.44 230.63 686.49 234.65 692.61C238.67 698.73 242.08 703.94 242.24 704.17L242.52 704.60L241.68 705.16C241.22 705.47 240.76 705.64 240.67 705.55C240.58 705.46 239.20 703.40 237.62 700.99C236.04 698.57 234.66 696.57 234.56 696.53C234.46 696.50 228.99 700.01 222.40 704.35C215.80 708.68 210.33 712.22 210.24 712.22C210.15 712.22 209.46 711.25 208.70 710.07ZM196.41 690.21C195.47 688.57 195.21 687.96 195.39 687.79C195.73 687.47 222.00 672.59 222.21 672.59C222.47 672.59 224.93 676.95 224.77 677.11C224.55 677.34 197.99 692.41 197.82 692.40C197.74 692.40 197.10 691.41 196.41 690.21ZM188.98 678.49L188.73 677.89L195.37 662.52C199.02 654.07 201.98 647.12 201.95 647.08C201.91 647.03 196.95 649.36 190.92 652.23C184.89 655.11 179.89 657.47 179.80 657.47C179.65 657.47 178.71 655.41 178.82 655.31C178.93 655.20 206.76 641.94 206.88 641.94C206.94 641.94 207.26 642.54 207.60 643.28L208.20 644.61L202.36 658.62C199.15 666.33 196.55 672.70 196.59 672.79C196.62 672.87 201.24 670.75 206.85 668.07C212.46 665.39 217.07 663.21 217.09 663.24C217.32 663.52 218.01 665.10 217.96 665.25C217.91 665.40 193.10 677.39 190.08 678.72L189.23 679.09L188.98 678.49ZM828.02 676.48C822.75 675.52 818.39 672.26 816.11 667.58C814.59 664.45 814.08 661.24 814.57 657.89C815.51 651.45 819.40 646.36 825.00 644.26C826.57 643.67 829.41 643.01 829.59 643.19C829.63 643.24 829.73 643.89 829.81 644.65L829.95 646.03L828.86 646.03C827.19 646.04 825.06 646.55 823.45 647.35C819.97 649.06 817.85 652.82 817.85 657.26C817.85 662.43 820.77 666.68 826.12 669.31C832.12 672.26 837.68 671.63 841.74 667.53C845.60 663.63 846.22 659.25 843.65 654.10C843.26 653.31 842.80 652.51 842.63 652.32C842.19 651.82 842.39 651.52 843.57 650.87L844.60 650.30L845.42 651.92C846.49 654.06 846.99 655.58 847.26 657.61C847.98 662.85 845.23 669.29 840.69 672.99C839.21 674.20 836.28 675.71 834.50 676.18C833.06 676.56 829.39 676.73 828.02 676.48ZM839.81 639.14C831.84 636.04 825.29 633.49 825.26 633.47C825.23 633.44 825.64 632.32 826.18 630.96L827.15 628.49L841.65 634.13C849.63 637.23 856.18 639.78 856.21 639.80C856.26 639.83 854.45 644.64 854.35 644.73C854.33 644.76 847.79 642.24 839.81 639.14ZM179.08 642.35C173.89 641.54 169.63 636.38 168.44 629.45C167.51 624.10 169.86 619.10 174.30 616.95C176.29 615.97 194.75 609.41 194.93 609.61C195.15 609.86 196.65 614.32 196.54 614.42C196.49 614.48 192.12 616.06 186.84 617.94C181.56 619.82 176.72 621.63 176.09 621.96C174.48 622.81 172.96 624.39 172.09 626.14C171.47 627.40 171.35 627.88 171.26 629.41C170.90 635.83 175.96 640.83 181.90 639.92C182.84 639.78 186.82 638.46 193.07 636.22C198.41 634.31 202.88 632.75 203.02 632.75C203.24 632.75 204.04 634.74 203.87 634.87C203.64 635.06 184.00 641.96 183.25 642.12C181.77 642.43 180.17 642.52 179.08 642.35ZM844.72 625.55C836.74 622.96 830.19 620.83 830.17 620.81C830.09 620.75 831.58 616.10 831.73 615.94C831.81 615.85 837.99 617.76 845.47 620.18C852.95 622.60 859.17 624.57 859.29 624.57C859.41 624.57 860.39 621.84 861.47 618.50C862.55 615.15 863.62 611.84 863.85 611.14C864.08 610.44 864.36 609.86 864.48 609.86C865.03 609.86 866.28 610.37 866.22 610.56C866.18 610.68 864.73 615.17 863.00 620.54C860.59 628.02 859.79 630.29 859.54 630.27C859.37 630.26 852.70 628.13 844.72 625.55ZM850.40 584.56C847.75 583.64 846.06 581.73 845.31 578.78C844.93 577.31 845.05 575.83 845.69 574.11C846.28 572.52 848.37 570.46 849.98 569.85C853.05 568.71 855.91 569.24 858.30 571.39C859.80 572.73 860.60 574.50 860.72 576.68C860.82 578.72 860.48 580.02 859.39 581.62C857.50 584.40 853.62 585.67 850.40 584.56ZM170.39 580.79C168.64 580.39 167.45 579.70 166.23 578.39C164.71 576.75 164.18 575.37 164.19 573.09C164.20 570.85 164.73 569.42 166.13 567.88C170.81 562.77 179.31 565.70 179.75 572.57C180.08 577.76 175.36 581.90 170.39 580.79ZM862.38 548.61L853.50 541.50L846.49 540.97C842.63 540.68 839.43 540.39 839.37 540.32C839.22 540.18 839.63 535.10 839.80 534.94C839.92 534.82 851.99 535.62 852.91 535.81C853.20 535.87 856.58 534.02 863.41 530.08C868.94 526.88 873.53 524.26 873.60 524.26C873.67 524.26 873.64 525.52 873.53 527.07L873.32 529.87L864.77 534.81C860.07 537.52 856.14 539.83 856.04 539.93C855.93 540.04 858.99 542.62 863.72 546.41L871.58 552.70L871.45 554.16C871.38 554.96 871.31 555.64 871.29 555.66C871.27 555.69 867.26 552.51 862.38 548.61ZM151.51 538.20C151.44 537.33 151.33 536.10 151.27 535.46L151.15 534.30L152.04 534.18C153.74 533.96 184.10 531.97 184.20 532.08C184.36 532.23 184.73 537.37 184.60 537.50C184.49 537.61 153.94 539.77 152.38 539.78L151.63 539.79L151.51 538.20ZM166.72 523.64C162.84 523.56 157.58 523.49 155.02 523.47L150.37 523.44L150.37 521.82L150.37 520.20L162.52 509.66C169.20 503.87 174.71 499.05 174.77 498.96C174.88 498.77 167.51 498.52 161.92 498.52C160.01 498.51 156.72 498.45 154.61 498.38L150.78 498.25L150.78 497.02L150.78 495.79L159.51 495.93C164.32 496.00 171.95 496.13 176.47 496.20L184.70 496.33L184.70 497.01L184.70 497.68L171.08 509.18L157.47 520.68L158.36 520.81C158.86 520.88 164.71 521.01 171.36 521.09L183.47 521.24L183.47 522.55L183.47 523.85L178.62 523.81C175.95 523.79 170.59 523.71 166.72 523.64ZM871.51 518.20C871.44 516.66 871.38 513.97 871.38 512.20L871.38 508.99L867.55 509.07C855.09 509.33 840.65 509.52 840.50 509.43C840.40 509.37 840.33 508.10 840.33 506.60L840.33 503.89L846.81 503.76C850.38 503.68 857.33 503.56 862.25 503.49L871.19 503.36L871.17 497.41L871.14 491.47L872.17 491.41L873.19 491.34L873.30 492.22C873.36 492.71 873.46 497.88 873.52 503.73C873.58 509.57 873.69 515.84 873.76 517.67L873.89 520.99L872.77 520.99L871.65 520.99L871.51 518.20ZM151.28 488.14C151.14 488.04 151.57 483.33 152.64 473.39C153.51 465.35 154.23 458.78 154.24 458.78C154.25 458.78 154.71 458.81 155.28 458.85L156.30 458.92L156.28 459.77C156.28 460.23 156.02 462.91 155.70 465.72C155.39 468.53 155.14 470.84 155.15 470.86C155.16 470.88 162.05 471.62 170.45 472.52C178.85 473.41 185.76 474.18 185.80 474.22C185.90 474.32 185.33 479.56 185.22 479.68C185.14 479.76 156.52 476.78 155.16 476.55L154.54 476.45L153.97 482.02C153.66 485.08 153.36 487.75 153.30 487.94C153.23 488.21 152.99 488.30 152.35 488.30C151.88 488.30 151.40 488.23 151.28 488.14ZM839.44 486.41C839.38 486.05 839.26 484.81 839.19 483.66L839.05 481.58L839.53 481.48C840.00 481.38 869.60 478.92 871.28 478.84L872.10 478.80L872.32 481.46C872.44 482.92 872.48 484.17 872.42 484.25C872.33 484.36 841.04 487.07 839.86 487.07C839.67 487.07 839.51 486.81 839.44 486.41ZM838.50 474.29L838.02 471.09L844.82 464.30L851.61 457.50L851.36 455.69C851.22 454.69 851.07 453.82 851.04 453.76C851.00 453.69 847.54 454.17 843.35 454.82C839.16 455.46 835.72 455.97 835.70 455.95C835.56 455.80 834.88 450.58 834.98 450.47C835.12 450.34 867.53 445.34 867.60 445.44C867.62 445.47 868.06 448.35 868.59 451.83C869.68 459.05 869.78 461.15 869.13 463.68C868.63 465.66 868.04 466.68 866.69 467.94C864.33 470.15 861.22 470.61 858.14 469.20C856.68 468.53 854.72 466.51 853.80 464.75C853.41 463.99 853.03 463.40 852.95 463.43C852.87 463.45 849.76 466.60 846.03 470.42C842.30 474.24 839.19 477.39 839.11 477.43C839.03 477.46 838.76 476.04 838.50 474.29ZM863.31 463.40C865.41 462.46 866.86 460.42 867.04 458.11C867.14 456.88 866.57 452.01 866.28 451.53C866.18 451.38 864.11 451.62 859.54 452.32C855.92 452.88 852.91 453.38 852.86 453.43C852.81 453.48 852.95 454.59 853.17 455.89C853.83 459.85 855.27 462.20 857.79 463.42L859.02 464.01L860.65 463.93C861.76 463.88 862.62 463.71 863.31 463.40ZM172.34 454.48C164.24 452.86 157.16 451.43 156.59 451.32L155.55 451.10L157.79 439.82C159.02 433.62 160.04 428.52 160.05 428.50C160.09 428.46 162.09 428.87 162.17 428.94C162.20 428.96 161.45 432.80 160.52 437.48L158.81 445.98L159.24 446.08C160.75 446.44 170.24 448.27 170.29 448.22C170.33 448.18 170.83 445.76 171.41 442.84C171.99 439.92 172.50 437.38 172.56 437.20C172.64 436.92 172.80 436.90 173.60 437.05C174.12 437.14 174.60 437.27 174.66 437.33C174.72 437.40 174.27 439.97 173.66 443.05C173.05 446.13 172.60 448.68 172.65 448.72C172.84 448.88 186.57 451.55 186.80 451.47C186.94 451.42 187.74 447.85 188.71 443.03L190.38 434.67L191.26 434.73C191.75 434.76 192.23 434.87 192.34 434.97C192.45 435.09 191.63 439.65 190.30 446.30L188.07 457.45L187.56 457.44C187.28 457.43 180.43 456.10 172.34 454.48ZM841.65 439.68C838.31 438.80 835.97 437.53 833.64 435.31C830.00 431.85 827.95 427.38 827.71 422.35C827.19 411.82 835.48 403.23 845.63 403.77C849.87 404.00 853.33 405.54 856.54 408.61C859.05 411.01 860.83 414.03 861.79 417.51C862.42 419.80 862.56 423.89 862.09 426.22C860.71 433.02 855.92 438.13 849.46 439.68C847.24 440.21 843.67 440.21 841.65 439.68ZM846.71 433.53C855.54 431.74 860.91 426.56 860.49 420.26C860.14 415.12 857.00 411.30 852.16 410.16C850.22 409.70 846.47 409.75 843.93 410.27C836.08 411.86 830.88 415.86 829.78 421.13C829.09 424.45 830.26 428.34 832.69 430.76C835.73 433.81 840.61 434.77 846.71 433.53ZM178.00 424.77C169.43 422.21 162.37 420.08 162.32 420.02C162.23 419.94 164.71 411.34 165.72 408.21C166.90 404.58 169.14 401.60 171.59 400.40L172.94 399.73L174.89 399.74C176.56 399.74 176.99 399.82 178.00 400.28C180.97 401.67 182.59 404.36 182.98 408.59C183.06 409.39 183.13 410.05 183.14 410.04C183.15 410.04 187.30 408.49 192.36 406.60C197.41 404.72 201.59 403.20 201.63 403.24C201.68 403.27 201.32 404.67 200.84 406.33L199.96 409.37L190.85 412.68L181.73 415.99L181.20 417.82L180.67 419.65L181.92 420.04C182.60 420.24 185.92 421.23 189.29 422.22C192.66 423.21 195.45 424.04 195.48 424.06C195.64 424.16 193.97 429.46 193.79 429.44C193.68 429.43 186.57 427.33 178.00 424.77ZM179.67 417.00C180.42 414.56 180.53 411.61 179.93 409.90C179.12 407.57 176.78 405.84 174.15 405.62C172.45 405.48 171.38 405.75 170.06 406.63C168.51 407.67 167.72 409.00 166.72 412.29C166.24 413.88 165.88 415.21 165.93 415.25C166.12 415.44 178.31 419.00 178.67 418.97C178.99 418.94 179.19 418.56 179.67 417.00ZM821.03 400.02C820.48 398.64 820.13 397.48 820.23 397.39C820.33 397.29 823.53 395.96 827.35 394.42C831.17 392.88 834.37 391.55 834.46 391.47C834.58 391.35 828.90 376.62 828.57 376.18C828.55 376.14 825.69 377.26 822.22 378.66C818.75 380.06 815.44 381.40 814.86 381.62L813.80 382.04L812.76 379.46C812.19 378.04 811.76 376.85 811.79 376.81C811.93 376.68 842.42 364.47 842.47 364.53C842.62 364.68 844.41 369.30 844.41 369.52C844.41 369.65 841.33 370.99 837.57 372.49C833.81 373.99 830.73 375.31 830.72 375.42C830.72 375.57 836.58 390.35 836.74 390.58C836.76 390.61 839.89 389.39 843.69 387.87C847.49 386.34 850.67 385.17 850.76 385.27C851.08 385.61 852.78 390.12 852.63 390.26C852.45 390.44 822.45 402.49 822.19 402.49C822.09 402.49 821.57 401.38 821.03 400.02ZM187.82 393.53C179.48 390.09 172.65 387.16 172.65 387.03C172.64 386.90 172.90 386.21 173.23 385.50L173.81 384.20L188.87 378.89C197.16 375.97 204.04 373.52 204.17 373.44C204.30 373.36 204.36 373.26 204.30 373.21C204.25 373.17 199.33 371.13 193.38 368.68C187.42 366.24 182.45 364.18 182.32 364.11C182.16 364.02 182.21 363.66 182.51 362.89C182.86 361.98 183.00 361.81 183.35 361.89C183.77 361.98 214.15 374.47 214.30 374.61C214.34 374.66 214.27 374.95 214.13 375.28L213.89 375.86L197.10 381.55C187.86 384.67 180.24 387.28 180.16 387.35C180.08 387.42 185.37 389.67 191.91 392.36C198.45 395.04 203.87 397.30 203.96 397.38C204.12 397.52 203.28 399.85 203.08 399.81C203.03 399.80 196.16 396.97 187.82 393.53ZM203.90 356.00C197.89 347.85 192.94 341.02 192.91 340.82C192.88 340.62 193.01 340.25 193.22 340.01L193.58 339.58L212.01 340.76C222.15 341.40 230.48 341.97 230.52 342.02C230.56 342.07 230.01 343.20 229.29 344.52L227.98 346.92L226.92 346.91C226.34 346.91 223.98 346.78 221.68 346.61C219.37 346.45 217.11 346.31 216.64 346.31L215.79 346.30L212.48 352.44C210.67 355.82 209.23 358.70 209.29 358.83C209.34 358.96 210.95 361.18 212.86 363.76L216.33 368.45L215.73 369.63C215.40 370.29 215.06 370.82 214.98 370.82C214.90 370.82 209.91 364.15 203.90 356.00ZM803.89 361.58C803.73 361.32 803.14 360.22 802.57 359.13L801.54 357.14L804.03 355.82C805.39 355.10 811.51 351.88 817.63 348.67C823.74 345.47 828.77 342.81 828.81 342.77C828.85 342.73 827.63 340.33 826.11 337.43C824.59 334.53 823.37 332.14 823.41 332.11C823.77 331.79 825.29 331.19 825.40 331.32C825.48 331.42 828.24 336.64 831.54 342.93C834.83 349.23 837.88 355.04 838.32 355.85L839.13 357.32L838.11 357.83L837.09 358.35L834.33 353.09C832.80 350.20 831.49 347.85 831.40 347.87C831.31 347.89 825.18 351.09 817.79 354.97C810.40 358.86 804.31 362.04 804.26 362.04C804.21 362.04 804.04 361.83 803.89 361.58ZM213.22 346.16C213.08 346.02 199.61 345.22 199.49 345.34C199.42 345.41 201.23 347.99 203.50 351.09L207.64 356.71L210.47 351.47C212.02 348.59 213.26 346.20 213.22 346.16ZM794.66 338.66C792.08 338.06 789.97 336.79 787.80 334.53C786.46 333.13 784.77 330.78 783.99 329.25C782.39 326.10 781.96 322.06 782.90 319.17C783.55 317.18 784.58 315.63 786.30 314.07C787.39 313.09 803.60 302.13 805.43 301.13C805.73 300.97 806.03 301.31 807.32 303.24C808.16 304.50 808.79 305.59 808.71 305.67C808.62 305.75 804.32 308.61 799.15 312.04C789.04 318.73 788.35 319.28 787.22 321.66C785.41 325.47 786.17 329.72 789.28 333.12C792.29 336.42 796.98 337.26 801.00 335.22C801.45 334.99 805.90 332.10 810.90 328.79C817.13 324.66 820.07 322.82 820.25 322.94C820.40 323.04 820.75 323.50 821.02 323.96L821.52 324.81L812.08 331.04C806.88 334.47 802.35 337.41 802.02 337.58C799.80 338.69 796.74 339.14 794.66 338.66ZM222.86 326.29C215.82 321.68 210.01 317.91 209.94 317.91C209.87 317.91 208.37 320.09 206.62 322.76C204.87 325.43 203.41 327.65 203.37 327.69C203.33 327.73 202.88 327.50 202.38 327.17L201.45 326.57L209.33 314.52C213.67 307.90 217.34 302.35 217.50 302.19C217.73 301.94 217.89 301.98 218.60 302.45C219.06 302.75 219.43 303.04 219.43 303.10C219.43 303.15 218.05 305.30 216.37 307.87C214.68 310.44 213.26 312.67 213.19 312.84C213.11 313.06 216.58 315.43 225.94 321.57L238.81 329.99L237.48 332.07C236.74 333.21 236.03 334.27 235.89 334.41C235.69 334.62 233.14 333.03 222.86 326.29ZM774.86 314.75L773.06 312.56L773.73 311.10C774.10 310.29 775.29 307.83 776.39 305.63L778.38 301.64L774.30 296.65C772.05 293.90 770.01 291.44 769.76 291.18L769.30 290.71L763.45 292.18L757.59 293.64L757.03 292.97C756.71 292.59 756.30 292.09 756.11 291.85L755.76 291.41L773.84 286.86C783.78 284.36 792.03 282.36 792.17 282.41C792.31 282.47 792.54 282.74 792.69 283.01L792.96 283.51L785.21 299.43C780.95 308.19 777.28 315.71 777.06 316.14L776.65 316.93L774.86 314.75ZM235.45 306.34C228.38 301.00 222.49 296.51 222.35 296.38C222.17 296.20 222.50 295.64 223.75 294.00C224.65 292.82 225.42 291.83 225.45 291.79C225.50 291.75 247.24 308.13 251.45 311.37L251.90 311.73L250.27 313.90C249.37 315.09 248.56 316.07 248.47 316.07C248.37 316.07 242.51 311.69 235.45 306.34ZM251.88 299.10C246.03 298.12 241.06 294.21 238.92 288.93C237.97 286.57 237.73 285.26 237.73 282.46C237.73 279.37 238.16 277.40 239.44 274.66C240.46 272.49 241.23 271.39 243.11 269.43C246.97 265.38 251.88 263.36 257.21 263.62C260.05 263.76 261.43 264.11 263.87 265.30C272.38 269.46 275.66 280.11 271.17 289.00C269.27 292.76 265.51 296.25 261.60 297.88C258.64 299.11 254.79 299.60 251.88 299.10ZM782.51 293.05C784.19 289.60 785.54 286.75 785.50 286.71C785.36 286.57 771.88 290.01 771.93 290.17C771.99 290.34 779.31 299.31 779.39 299.31C779.42 299.31 780.82 296.49 782.51 293.05ZM262.78 294.87C265.64 293.83 268.23 291.18 269.31 288.17C269.88 286.59 269.92 283.63 269.40 281.86C267.97 277.02 263.09 271.63 257.74 268.98C255.55 267.89 253.79 267.45 251.71 267.45C247.47 267.45 243.83 269.91 241.85 274.12C241.28 275.33 241.19 275.77 241.12 277.55C240.99 280.97 242.01 283.68 244.66 286.99C247.73 290.84 252.74 294.30 256.43 295.13C258.25 295.54 261.29 295.42 262.78 294.87ZM741.03 276.74C736.59 272.43 732.96 268.82 732.96 268.71C732.96 268.54 755.45 245.15 755.74 245.02C755.83 244.97 765.20 253.91 771.87 260.41L772.38 260.90L771.59 261.71L770.80 262.52L764.58 256.47L758.37 250.42L757.35 251.42C756.78 251.97 754.94 253.87 753.25 255.65L750.17 258.87L754.34 262.93L758.50 267.00L757.74 267.77L756.99 268.54L752.80 264.50L748.61 260.47L745.18 264.01C743.29 265.95 740.99 268.33 740.06 269.30L738.37 271.05L743.43 275.94C746.21 278.63 749.04 281.35 749.71 281.99L750.94 283.15L750.24 283.88C749.85 284.28 749.44 284.60 749.32 284.59C749.20 284.58 745.47 281.05 741.03 276.74ZM274.00 262.17C268.10 255.46 263.25 249.86 263.21 249.74C263.17 249.61 263.65 249.07 264.28 248.53L265.42 247.55L281.34 249.44C290.10 250.49 297.37 251.30 297.49 251.26C297.62 251.22 294.29 247.28 290.09 242.50C285.89 237.73 282.32 233.65 282.16 233.44L281.85 233.06L282.75 232.26L283.66 231.46L284.21 232.03C284.52 232.35 289.56 238.07 295.43 244.74L306.09 256.87L305.61 257.35L305.14 257.82L287.48 255.48C277.77 254.19 269.79 253.18 269.75 253.22C269.70 253.26 273.54 257.69 278.27 263.06L286.86 272.83L285.99 273.60C285.51 274.02 285.02 274.37 284.91 274.37C284.80 274.37 279.89 268.87 274.00 262.17ZM724.58 260.50C722.34 260.02 720.60 259.19 718.41 257.54C714.91 254.91 713.04 251.61 713.04 248.05C713.04 246.71 713.43 244.47 713.76 243.94C713.81 243.85 714.43 243.95 715.12 244.16C717.03 244.74 716.94 244.68 716.72 245.28C715.92 247.39 716.06 250.37 717.07 252.52C718.31 255.13 721.27 257.32 723.93 257.57C725.07 257.67 725.40 257.62 726.38 257.17C728.38 256.26 729.33 254.41 729.11 251.91C728.93 250.05 728.55 248.89 726.72 244.63C724.33 239.08 724.01 237.97 723.99 235.26C723.97 233.25 724.03 232.90 724.50 231.89C725.33 230.15 726.72 228.75 728.52 227.86L730.08 227.09L731.93 227.10C735.18 227.11 738.23 228.59 741.14 231.57C743.28 233.77 744.49 236.44 744.50 238.96C744.50 239.74 743.81 242.87 743.58 243.10C743.52 243.15 742.80 243.04 741.96 242.84L740.45 242.49L740.76 241.63C741.24 240.31 741.35 237.30 740.96 235.96C740.53 234.48 739.36 232.84 737.88 231.65C733.97 228.50 729.18 230.01 729.18 234.39C729.18 236.18 729.70 237.88 731.71 242.65C734.00 248.09 734.51 249.73 734.64 252.03C734.82 255.11 734.06 256.85 731.70 258.78C731.12 259.25 730.11 259.84 729.46 260.08C728.13 260.58 725.85 260.78 724.58 260.50ZM308.30 253.83C308.30 253.75 306.82 245.45 305.00 235.39L301.70 217.11L302.29 216.64C302.80 216.24 302.93 216.21 303.29 216.44C303.52 216.59 310.81 220.78 319.49 225.75L335.28 234.79L333.02 236.41C331.78 237.29 330.67 238.02 330.56 238.02C330.45 238.02 328.05 236.69 325.23 235.06C322.15 233.27 320.02 232.16 319.86 232.25C319.73 232.33 317.11 234.18 314.05 236.36C309.95 239.28 308.52 240.41 308.60 240.65C308.65 240.83 309.12 243.37 309.63 246.30C310.15 249.22 310.61 251.75 310.67 251.93C310.73 252.15 310.37 252.54 309.53 253.12C308.86 253.59 308.30 253.91 308.30 253.83ZM702.68 245.42L702.23 245.07L699.82 227.45C698.50 217.76 697.37 209.83 697.31 209.83C697.25 209.83 694.00 214.70 690.08 220.66C685.60 227.47 682.88 231.43 682.73 231.34C682.60 231.27 682.11 230.95 681.64 230.63L680.79 230.05L689.68 216.52C694.58 209.07 698.70 202.86 698.84 202.70C699.06 202.47 699.31 202.57 700.35 203.27C701.07 203.76 701.64 204.31 701.70 204.57C701.75 204.82 702.81 211.87 704.05 220.25C705.29 228.62 706.36 235.69 706.42 235.96C706.51 236.38 707.27 235.33 711.02 229.63C713.50 225.87 716.51 221.31 717.71 219.49L719.90 216.18L720.86 216.81C721.39 217.15 721.82 217.54 721.82 217.67C721.81 217.97 703.56 245.64 703.32 245.72C703.22 245.75 702.93 245.62 702.68 245.42ZM313.17 234.27C315.66 232.49 317.70 230.97 317.70 230.90C317.70 230.71 305.82 223.89 305.70 224.00C305.62 224.09 307.77 236.56 308.03 237.46C308.15 237.90 307.72 238.17 313.17 234.27ZM330.17 218.93C325.62 211.14 321.91 204.70 321.93 204.61C321.94 204.51 323.01 203.82 324.30 203.07L326.65 201.69L334.46 215.04L342.27 228.39L342.70 228.12C346.00 226.06 356.60 220.05 356.71 220.18C356.80 220.27 357.06 220.68 357.31 221.09C357.65 221.67 357.69 221.87 357.49 222.03C357.16 222.29 338.60 233.12 338.51 233.11C338.47 233.10 334.72 226.72 330.17 218.93ZM665.75 221.86C660.24 218.96 655.70 216.49 655.67 216.37C655.61 216.21 670.55 187.50 670.86 187.18C670.94 187.10 690.78 197.50 691.04 197.76C691.14 197.85 691.00 198.35 690.74 198.86L690.26 199.79L682.55 195.74L674.83 191.69L673.11 194.99C672.16 196.80 670.94 199.13 670.40 200.15C669.86 201.18 669.47 202.07 669.52 202.12C669.58 202.17 671.85 203.38 674.58 204.81C677.30 206.24 679.53 207.49 679.53 207.60C679.53 207.84 678.74 209.42 678.62 209.42C678.58 209.42 676.27 208.22 673.49 206.75C670.71 205.29 668.37 204.16 668.29 204.25C668.02 204.55 661.52 217.01 661.60 217.09C661.64 217.13 665.03 218.93 669.12 221.08C673.22 223.23 676.64 225.06 676.73 225.14C676.85 225.25 675.92 227.26 675.79 227.17C675.77 227.16 671.25 224.77 665.75 221.86ZM370.34 214.98C370.25 214.82 358.02 185.93 357.74 185.18L357.57 184.74L363.02 182.44C372.57 178.39 375.28 177.63 379.40 177.81C381.96 177.92 383.65 178.39 385.89 179.58C389.62 181.57 392.43 185.17 393.71 189.60C394.39 191.97 394.49 195.38 393.94 197.57C392.81 202.08 389.78 206.00 385.32 208.69C383.95 209.52 371.14 215.14 370.61 215.14C370.52 215.14 370.40 215.07 370.34 214.98ZM378.16 209.31C379.89 208.58 381.93 207.56 382.69 207.05C387.35 203.96 389.24 198.77 387.87 192.87C387.42 190.93 385.56 187.27 384.32 185.89C381.06 182.25 376.63 180.77 371.95 181.74C370.47 182.05 363.85 184.69 363.84 184.98C363.81 185.35 374.62 210.64 374.80 210.64C374.92 210.64 376.43 210.04 378.16 209.31ZM634.59 207.34C633.29 206.78 632.16 206.25 632.06 206.15C631.88 205.98 644.58 175.71 644.83 175.71C644.96 175.71 664.12 183.81 664.55 184.05C664.74 184.15 664.70 184.42 664.39 185.10C664.17 185.60 663.96 186.04 663.92 186.07C663.89 186.11 660.61 184.76 656.63 183.07C652.65 181.38 649.31 180.00 649.19 180.00C648.98 180.00 644.47 190.56 644.62 190.70C644.66 190.74 647.04 191.77 649.91 192.98C652.77 194.19 655.14 195.20 655.18 195.22C655.30 195.31 654.40 197.16 654.23 197.16C654.13 197.16 651.70 196.16 648.83 194.94L643.62 192.73L640.51 200.10C638.79 204.16 637.29 207.67 637.16 207.91L636.94 208.34L634.59 207.34ZM615.86 200.57C609.99 198.63 605.14 196.99 605.06 196.92C604.96 196.82 615.06 165.76 615.26 165.54C615.33 165.47 636.81 172.55 636.94 172.68C637.11 172.85 636.57 174.68 636.35 174.68C636.25 174.68 632.53 173.49 628.10 172.02C623.66 170.56 619.99 169.39 619.94 169.44C619.71 169.67 616.25 180.42 616.39 180.50C616.47 180.55 618.96 181.39 621.91 182.35L627.27 184.11L627.15 184.60C626.93 185.45 626.63 186.13 626.47 186.12C626.38 186.12 623.92 185.34 621.00 184.40C618.08 183.45 615.63 182.73 615.56 182.81C615.49 182.89 614.42 186.02 613.17 189.76L610.91 196.57L611.39 196.75C611.65 196.85 615.30 198.05 619.50 199.42C623.70 200.79 627.20 201.97 627.28 202.05C627.45 202.20 626.86 204.11 626.65 204.09C626.58 204.09 621.72 202.50 615.86 200.57ZM400.96 185.56C398.16 177.05 395.83 169.99 395.80 169.87C395.74 169.68 400.03 168.14 400.81 168.07C400.98 168.05 402.87 173.43 406.27 183.67C409.13 192.26 411.44 199.30 411.42 199.32C411.33 199.39 406.26 201.04 406.17 201.03C406.11 201.03 403.77 194.06 400.96 185.56ZM429.46 193.76C424.65 193.16 420.98 191.39 418.02 188.24C416.19 186.31 415.31 184.88 414.53 182.60C413.26 178.89 413.21 175.43 414.38 171.82C416.29 165.92 420.88 161.63 427.31 159.74C428.72 159.33 429.38 159.26 432.01 159.27L435.08 159.27L437.02 159.94C438.09 160.31 439.58 160.98 440.34 161.42C441.90 162.35 444.22 164.21 444.13 164.46C444.10 164.55 443.67 165.06 443.18 165.59L442.29 166.54L440.93 165.24C438.48 162.88 436.46 161.77 433.94 161.38C432.65 161.18 432.16 161.20 430.69 161.49C425.48 162.55 421.69 166.04 420.32 171.05C419.75 173.11 419.85 177.30 420.52 179.81C422.41 186.88 427.62 191.22 434.22 191.23C437.65 191.24 440.98 190.06 443.05 188.11L444.18 187.05L442.84 181.54C442.10 178.51 441.46 175.99 441.40 175.94C441.35 175.88 440.01 176.14 438.43 176.51C436.71 176.91 435.47 177.10 435.36 176.99C435.26 176.89 435.15 176.45 435.13 176.01L435.08 175.22L440.70 173.85C443.79 173.10 446.35 172.52 446.39 172.56C446.44 172.60 447.24 175.78 448.18 179.63L449.88 186.64L449.22 187.22C446.12 189.94 441.38 192.12 436.09 193.27C434.19 193.68 430.81 193.93 429.46 193.76ZM582.30 191.21C581.06 191.02 567.93 188.20 567.87 188.11C567.81 188.04 574.87 155.87 574.95 155.81C575.08 155.72 587.33 158.47 589.02 158.97C595.43 160.86 599.00 163.57 601.19 168.20C602.32 170.60 602.61 171.99 602.59 174.89C602.56 177.99 602.12 179.83 600.73 182.65C599.92 184.30 599.48 184.89 597.82 186.55C596.15 188.23 595.59 188.65 593.93 189.47C591.27 190.77 589.31 191.25 586.16 191.34C584.76 191.38 583.02 191.32 582.30 191.21ZM586.16 188.14C588.89 187.48 591.84 185.34 593.51 182.77C596.62 178.00 597.03 171.41 594.50 166.96C593.18 164.64 590.73 162.52 588.14 161.46C587.18 161.07 580.07 159.33 579.90 159.44C579.82 159.50 573.90 186.80 573.96 186.86C574.06 186.96 580.38 188.33 581.26 188.44C582.26 188.57 585.05 188.40 586.16 188.14ZM458.16 187.90C458.04 187.53 453.16 156.17 453.16 155.73C453.16 155.40 453.50 155.30 455.87 154.93C457.35 154.70 458.59 154.52 458.60 154.54C458.65 154.57 463.60 186.32 463.65 186.84C463.68 187.26 463.68 187.26 459.02 188.02C458.50 188.11 458.22 188.07 458.16 187.90ZM541.66 185.00C536.23 184.52 531.74 184.07 531.67 184.01C531.57 183.91 534.21 151.83 534.37 151.28C534.43 151.07 539.67 151.41 539.90 151.64C539.99 151.73 537.72 179.09 537.42 181.44L537.31 182.37L545.60 183.07L553.88 183.76L553.88 184.84L553.88 185.92L552.71 185.90C552.06 185.88 547.09 185.48 541.66 185.00ZM480.25 184.36C480.18 183.81 479.57 176.89 478.88 168.96C478.19 161.04 477.61 154.54 477.58 154.51C477.56 154.48 474.93 154.68 471.74 154.97C468.55 155.25 465.87 155.48 465.78 155.48C465.69 155.48 465.62 154.99 465.62 154.38L465.62 153.29L466.69 153.17C469.66 152.84 494.85 150.72 494.92 150.80C494.97 150.84 495.03 151.34 495.07 151.90L495.13 152.93L489.21 153.44L483.29 153.96L483.34 154.56C483.36 154.90 483.95 161.72 484.64 169.72C485.34 177.72 485.85 184.39 485.79 184.55C485.71 184.76 485.09 184.88 483.47 184.99C482.25 185.07 481.05 185.18 480.81 185.24C480.42 185.33 480.36 185.24 480.25 184.36ZM502.37 166.82L510.06 149.75L510.83 149.81L511.61 149.86L519.57 166.45C523.95 175.57 527.53 183.13 527.53 183.25C527.53 183.40 526.59 183.47 524.72 183.47L521.91 183.47L519.36 178.06L516.80 172.65L510.77 172.66C507.46 172.67 504.24 172.74 503.63 172.82L502.51 172.95L500.05 178.41L497.60 183.86L496.14 183.87L494.68 183.88L502.37 166.82ZM515.45 170.28C515.54 170.19 513.81 166.47 510.92 160.52L509.45 157.49L506.65 163.70C505.10 167.11 503.79 170.04 503.73 170.20C503.63 170.45 504.45 170.49 509.49 170.43C512.72 170.39 515.41 170.33 515.45 170.28Z"/>
  <path fill="#FF0000" fill-rule="evenodd" d="M512.0 197.77A314.23 314.23 0 1 1 512.0 826.23A314.23 314.23 0 1 1 512.0 197.77ZM512.0 205.46A306.54 306.54 0 1 0 512.0 818.54A306.54 306.54 0 1 0 512.0 205.46Z"/>
</svg>
